<svg id="Layer_1" data-name="Layer 1" xmlns="http://www.w3.org/2000/svg" viewBox="0 0 137 39"><title>logo</title><path d="M2,36.47A12.15,12.15,0,0,1,.26,29.52V19.46q0-4.68,1.69-7.11t6-2.43q3.83,0,5.51,2.08t1.67,6.12v2.25H11.34v-2a19.73,19.73,0,0,0-.18-3,2.78,2.78,0,0,0-.9-1.69A3.45,3.45,0,0,0,8,13a3.61,3.61,0,0,0-2.41.69,3.29,3.29,0,0,0-1,1.9,17.09,17.09,0,0,0-.25,3.25V30.16a13,13,0,0,0,.35,3.41,3,3,0,0,0,1.14,1.76,3.93,3.93,0,0,0,2.2.53,3.28,3.28,0,0,0,2.25-.67,3.06,3.06,0,0,0,.93-1.83,20.24,20.24,0,0,0,.19-3.17V28.08h3.76v2.11a11.25,11.25,0,0,1-1.6,6.53Q11.91,39,7.93,39,3.71,39,2,36.47Z"/><path d="M20.19,36.61q-1.81-2.37-1.81-6.88V18.93q0-4.43,1.83-6.72t6-2.29q4.15,0,6,2.3T34,18.93V29.77q0,4.43-1.83,6.82T26.19,39Q22,39,20.19,36.61Zm9-2.06A7.9,7.9,0,0,0,30,30.62V18.12a7.5,7.5,0,0,0-.77-3.85,3.24,3.24,0,0,0-3-1.25q-2.25,0-3,1.25a7.49,7.49,0,0,0-.77,3.85V30.62a7.89,7.89,0,0,0,.77,3.94q.77,1.3,3,1.3A3.19,3.19,0,0,0,29.18,34.56Z"/><path d="M37.87,10.17h2.71L48.67,29.1V10.17H52v28.5H49.45l-8.2-19.46V38.67H37.87Z"/><path d="M74.22,10.17h11v3H78.19v9.43h5.74v2.81H78.19V35.82h7.14v2.85H74.22Z"/><path d="M88.54,10.17h5.74q4.33,0,6.35,1.78t2,5.79q0,5.49-3.52,6.65l4,14.28H99.34L95.61,25.3h-3.1V38.67h-4ZM94,22.45a5.36,5.36,0,0,0,3.68-1q1.11-1,1.11-3.69A7.9,7.9,0,0,0,98.42,15a2.65,2.65,0,0,0-1.37-1.48A6.55,6.55,0,0,0,94.27,13H92.51v9.43Z"/><path d="M108,36.58q-1.72-2.45-1.72-7.27V19.78a18,18,0,0,1,.69-5.44,6.09,6.09,0,0,1,2.36-3.27,8,8,0,0,1,4.59-1.14q3.94,0,5.68,2t1.74,6.3v1.06H117.6v-.88a15.47,15.47,0,0,0-.25-3.15,2.67,2.67,0,0,0-1-1.67A4,4,0,0,0,114,13a3.5,3.5,0,0,0-2.46.76,3.54,3.54,0,0,0-1,2,19.81,19.81,0,0,0-.23,3.38V29.74a10.25,10.25,0,0,0,.79,4.7,3.86,3.86,0,0,0,6.09-.12,11.09,11.09,0,0,0,.83-5v-2h-3.62V24.56h7.21V38.67H119l-.39-3.27A5,5,0,0,1,113.59,39Q109.72,39,108,36.58Z"/><path d="M125.62,10.17h11v3H129.6v9.43h5.74v2.81H129.6V35.82h7.14v2.85H125.62Z"/><polygon points="55.05 10.02 53.79 3.71 0.5 3.71 0.5 -0.02 56.85 -0.02 58.85 10.01 55.05 10.02"/><polygon points="67.33 10.02 69.34 -0.02 136.57 -0.02 136.57 3.71 72.4 3.71 71.14 10.01 67.33 10.02"/><polygon points="66.33 16.23 63.27 31.18 60.07 16.23 56.4 16.23 61.41 38.67 64.89 38.67 69.85 16.23 66.33 16.23"/></svg>