<svg id="Layer_1" xmlns="http://www.w3.org/2000/svg" viewBox="0 0 595.3 349.3"><style>.st0{fill:#ED2024;} .st1{fill:#ED1E24;}</style><path class="st0" d="M56 179.3H13.8V107h109.8s26.5 1.5 44.8 14.8c0 0 15 9.6 22.5 25.8 5.2 11.1 5.7 19.3 5.7 23.3 0 0 .1 15.8-3.8 25.6 0 0-10.7 38.1-64.1 46.9 0 0-11.8 1.1-14.3.8h-94s-15.8-16.3.6-35.6h94.8s6.7.6 15.6-2.5c0 0 18.2-5.2 22.4-23.8 0 0 1.5-8 0-13.7 0 0-2.9-19.5-29.7-25.6 0 0-3.2-.6-6.3-.6l-61.6.1-.2 36.8z"/><path class="st1" d="M216.5 142.4s-14.6-17.1 0-35.3h118.3s20.5 0 40.1 13.9c0 0 15.5 10.9 18.5 28.5 0 0 1.8 9.7 0 18.3 0 0-2.2 18.2-22.1 30.1 0 0-8.4 6.6-25.1 10.1 0 0-6.2 1.1-13.7 1.8H255l-.1 34.5h-43.1v-70.2l116.7.1s10.8-.3 12.7-1.8c0 0 6.7-2.7 9.5-9.1 0 0 1.5-5.7.1-9.8 0 0-3.2-9.2-16-11.1H216.5zM406 107.2h43v101.7h112.9s12.9 17.2 0 35.6H406V107.2z"/></svg>