<?xml version="1.0" encoding="utf-8"?>
<!-- Generator: Adobe Illustrator 19.0.0, SVG Export Plug-In . SVG Version: 6.00 Build 0)  -->
<svg version="1.1" id="Layer_1" xmlns="http://www.w3.org/2000/svg" xmlns:xlink="http://www.w3.org/1999/xlink" x="0px" y="0px"
	 viewBox="781 -866 1792 1792" style="enable-background:new 781 -866 1792 1792;" xml:space="preserve">
<style type="text/css">
	.st0{fill:#999999;}
	.st1{display:none;fill:#999999;}
</style>
<path class="st0" d="M2131.7-7.5c34.6,202.1,119.2,359.9,253.7,473.4c0,29.5-10.8,55.1-32.4,76.6c-21.6,21.6-47.1,32.4-76.6,32.4
	H1895c0,60.2-21.3,111.5-63.9,154.1s-93.9,63.9-154.1,63.9s-111.4-21.1-153.7-63.4s-63.7-93.5-64.3-153.7L2131.7-7.5z M1677,724.8
	c9.1,0,13.6-4.5,13.6-13.6c0-9.1-4.5-13.6-13.6-13.6c-33.5,0-62.3-12.1-86.4-36.2s-36.2-52.9-36.2-86.4c0-9.1-4.5-13.6-13.6-13.6
	c-9.1,0-13.6,4.5-13.6,13.6c0,41.4,14.6,76.8,43.8,106C1600.2,710.2,1635.6,724.8,1677,724.8z M2530.1-637.5
	c4.5,5.7,6.7,12.3,6.4,20c-0.3,7.7-3.3,14-8.9,19.2L933.7,782.7c-5.7,4.5-12.3,6.5-20,6c-7.7-0.6-13.8-3.7-18.3-9.4l-71.5-81.7
	c-4.5-5.7-6.7-12.3-6.4-20s3.3-13.8,8.9-18.3l158.4-137.1c-10.8-18.2-16.2-36.9-16.2-56.2c28.4-23.8,54.2-48.8,77.5-74.9
	c23.3-26.1,47.4-60,72.4-101.7s46.1-86.7,63.4-135c17.3-48.2,31.5-106.7,42.6-175.4c11.1-68.7,16.6-142.5,16.6-221.4
	c0-86.3,33.2-166.5,99.6-240.5s153.5-119.1,261.4-135c-4.5-10.8-6.8-21.9-6.8-33.2c0-22.7,7.9-42,23.8-57.9s35.2-23.8,57.9-23.8
	s42,7.9,57.9,23.8s23.8,35.2,23.8,57.9c0,11.4-2.3,22.4-6.8,33.2c70.4,10.2,132.5,33.6,186.5,70.2c53.9,36.6,95.9,81.3,126,134.1
	l355.9-309.1c5.7-4.5,12.3-6.5,20-6s13.8,3.7,18.3,9.4L2530.1-637.5z"/>
<path class="st1" d="M1697.3,694.4c0-8.9-4.4-13.3-13.3-13.3c-32.7,0-60.8-11.8-84.3-35.3s-35.3-51.6-35.3-84.3
	c0-8.9-4.4-13.3-13.3-13.3s-13.3,4.4-13.3,13.3c0,40.4,14.3,74.9,42.8,103.4s63,42.8,103.4,42.8
	C1692.9,707.7,1697.3,703.2,1697.3,694.4z M2374.9,455.2c0,28.8-10.5,53.7-31.6,74.7c-21,21-45.9,31.6-74.7,31.6h-372
	c0,58.7-20.8,108.8-62.3,150.3s-91.6,62.3-150.3,62.3s-108.8-20.8-150.3-62.3s-62.3-91.6-62.3-150.3h-372
	c-28.8,0-53.7-10.5-74.7-31.6c-21-21.1-31.6-45.9-31.6-74.7c27.7-23.3,52.9-47.6,75.6-73.1c22.7-25.5,46.2-58.5,70.6-99.2
	c24.4-40.7,45-84.6,61.9-131.6c16.9-47.1,30.7-104.1,41.5-171.1c10.8-67,16.2-138.9,16.2-215.9c0-84.1,32.4-162.3,97.2-234.6
	s149.7-116.1,254.9-131.6c-4.4-10.5-6.6-21.3-6.6-32.4c0-22.1,7.7-41,23.3-56.5c15.5-15.5,34.3-23.3,56.5-23.3s41,7.8,56.5,23.3
	s23.3,34.3,23.3,56.5c0,11.1-2.2,21.9-6.6,32.4c105.2,15.5,190.2,59.4,254.9,131.6c64.7,72.2,97.2,150.4,97.2,234.6
	c0,76.9,5.4,148.9,16.2,215.9c10.8,67,24.6,124,41.5,171.1c16.9,47.1,37.5,90.9,61.9,131.6c24.4,40.7,47.9,73.8,70.6,99.2
	C2322,407.6,2347.2,432,2374.9,455.2z"/>
</svg>
