<?xml version="1.0" encoding="utf-8"?>
<!-- Generator: Adobe Illustrator 21.0.2, SVG Export Plug-In . SVG Version: 6.00 Build 0)  -->
<svg version="1.1" id="Layer_1" xmlns="http://www.w3.org/2000/svg" xmlns:xlink="http://www.w3.org/1999/xlink" x="0px" y="0px"
	 viewBox="0 0 24 24" style="enable-background:new 0 0 24 24;" xml:space="preserve">
<g>
	<path d="M19,23H5c-1.7,0-3-1.3-3-3V6c0-1.7,1.3-3,3-3h14c1.7,0,3,1.3,3,3v14C22,21.7,20.7,23,19,23z M5,5C4.4,5,4,5.4,4,6v14
		c0,0.6,0.4,1,1,1h14c0.6,0,1-0.4,1-1V6c0-0.6-0.4-1-1-1H5z"/>
</g>
<g>
	<path d="M16,7c-0.6,0-1-0.4-1-1V2c0-0.6,0.4-1,1-1s1,0.4,1,1v4C17,6.6,16.6,7,16,7z"/>
</g>
<g>
	<path d="M8,7C7.4,7,7,6.6,7,6V2c0-0.6,0.4-1,1-1s1,0.4,1,1v4C9,6.6,8.6,7,8,7z"/>
</g>
<g>
	<path d="M21,11H3c-0.6,0-1-0.4-1-1s0.4-1,1-1h18c0.6,0,1,0.4,1,1S21.6,11,21,11z"/>
</g>
</svg>
