<?xml version="1.0" encoding="utf-8"?>
<!-- Generator: Adobe Illustrator 19.0.0, SVG Export Plug-In . SVG Version: 6.00 Build 0)  -->
<svg version="1.1" id="Layer_1" xmlns="http://www.w3.org/2000/svg" xmlns:xlink="http://www.w3.org/1999/xlink" x="0px" y="0px"
	 viewBox="42 -77 583.5 355" style="enable-background:new 42 -77 583.5 355;" xml:space="preserve">
<style type="text/css">
	.st0{fill:#FFFFFF;}
</style>
<path id="caret-left" class="st0" d="M60.5,170.2c-24.7,24.6-24.7,64.6-0.1,89.3c24.6,24.7,64.6,24.7,89.3,0.1c0,0,0.1-0.1,0.1-0.1
	L333.7,75.4l184,184.1c24.6,24.7,64.6,24.7,89.3,0.1c24.7-24.6,24.7-64.6,0.1-89.3c0,0-0.1-0.1-0.1-0.1L378.5-58.5
	c-24.6-24.6-64.5-24.6-89.2,0c0,0,0,0,0,0L60.5,170.2z"/>
</svg>
