<?xml version="1.0" encoding="utf-8"?>
<!-- Generator: Adobe Illustrator 19.0.0, SVG Export Plug-In . SVG Version: 6.00 Build 0)  -->
<svg version="1.1" id="Layer_1" xmlns="http://www.w3.org/2000/svg" xmlns:xlink="http://www.w3.org/1999/xlink" x="0px" y="0px"
	 viewBox="-224 75 51 51" style="enable-background:new -224 75 51 51;" xml:space="preserve">
<style type="text/css">
	.st0{fill:#CCCCCC;}
</style>
<g>
	<path class="st0" d="M-197,97.3V85h-3v12.3c-0.8,0.3-1.4,0.9-1.9,1.7h-0.1v0.3c-0.3,0.5-0.4,1.1-0.4,1.7s0.2,1.2,0.4,1.7v0.3h0.1
		c0.7,1.2,2,2,3.4,2s2.8-0.8,3.4-2h8v-4h-8C-195.4,98.2-196.1,97.6-197,97.3z"/>
	<path class="st0" d="M-198.4,75.2c-14.1,0-25.5,11.4-25.5,25.5s11.4,25.5,25.5,25.5s25.5-11.4,25.5-25.5S-184.4,75.2-198.4,75.2z
		 M-198.4,120.2c-10.8,0-19.5-8.7-19.5-19.5s8.7-19.5,19.5-19.5s19.5,8.7,19.5,19.5S-187.7,120.2-198.4,120.2z"/>
</g>
</svg>
