<?xml version="1.0" encoding="utf-8"?>
<!-- Generator: Adobe Illustrator 21.0.2, SVG Export Plug-In . SVG Version: 6.00 Build 0)  -->
<svg version="1.1" id="Layer_1" xmlns="http://www.w3.org/2000/svg" xmlns:xlink="http://www.w3.org/1999/xlink" x="0px" y="0px"
	 viewBox="0 0 24 24" style="enable-background:new 0 0 24 24;" xml:space="preserve">
<g>
	<path d="M19,23H5c-1.7,0-3-1.3-3-3v-7c0-1.7,1.3-3,3-3h14c1.7,0,3,1.3,3,3v7C22,21.7,20.7,23,19,23z M5,12c-0.6,0-1,0.4-1,1v7
		c0,0.6,0.4,1,1,1h14c0.6,0,1-0.4,1-1v-7c0-0.6-0.4-1-1-1H5z"/>
</g>
<g>
	<path d="M17,12c-0.6,0-1-0.4-1-1V7c0-2.2-1.8-4-4-4C9.8,3,8,4.8,8,7v4c0,0.6-0.4,1-1,1s-1-0.4-1-1V7c0-3.3,2.7-6,6-6s6,2.7,6,6v4
		C18,11.6,17.6,12,17,12z"/>
</g>
</svg>
