<?xml version="1.0" encoding="utf-8"?>
<!-- Generator: Adobe Illustrator 21.0.2, SVG Export Plug-In . SVG Version: 6.00 Build 0)  -->
<svg version="1.1" id="Layer_1" xmlns="http://www.w3.org/2000/svg" xmlns:xlink="http://www.w3.org/1999/xlink" x="0px" y="0px"
	 viewBox="0 0 100 100" style="enable-background:new 0 0 100 100;" xml:space="preserve">
<style type="text/css">
	.st0{fill:#FFFFFF;}
</style>
<path class="st0" d="M66.6,47.4L42.3,31.2c-2.1-1.4-4.8,0.1-4.8,2.6v32.4c0,2.5,2.8,4,4.8,2.6l24.3-16.2
	C68.5,51.4,68.5,48.6,66.6,47.4z"/>
<path class="st0" d="M50,0C22.4,0,0,22.4,0,50s22.4,50,50,50s50-22.4,50-50S77.6,0,50,0z M50,92.2C26.7,92.2,7.8,73.3,7.8,50
	S26.7,7.8,50,7.8S92.2,26.7,92.2,50S73.3,92.2,50,92.2z"/>
</svg>
