<svg xmlns="http://www.w3.org/2000/svg" viewBox="0 0 33.203 27.599">
  <defs>
    <style>
      .cls-1 {
        fill: #595959;
        fill-rule: evenodd;
      }
    </style>
  </defs>
  <g id="Group_118" data-name="Group 118" transform="translate(0 0)">
    <path id="Path_215" data-name="Path 215" class="cls-1" d="M18.878,4.422V1.577a.519.519,0,0,0-.519-.519H2.5a.519.519,0,0,0-.519.519v26.8a.516.516,0,0,0,.079.276H8.269V22.786h4.323v5.872H18.8a.516.516,0,0,0,.079-.276V4.422ZM13.846,4.6h1.837V6.435H13.846V4.6Zm-4.4,0h1.837V6.435H9.442V4.6Zm4.4,7.566V10.326h1.837v1.837Zm0,3.891h1.837v1.837H13.846ZM6.875,4.6V6.435H5.037V4.6ZM5.037,10.326H6.875v1.837H5.037Zm0,5.728H6.875v1.837H5.037Zm4.4-5.728h1.837v1.837H9.442Zm0,5.728h1.837v1.837H9.442Z" transform="translate(6.241 -1.058)"/>
    <path id="Path_216" data-name="Path 216" class="cls-1" d="M12.521,21.211V2.151A.519.519,0,0,0,12,1.632H4.956v20.1H12a.519.519,0,0,0,.519-.519ZM7.041,5.279H8.879V7.116H7.041Zm0,5.484H8.879V12.6H7.041Zm0,5.484H8.879v1.837H7.041Z" transform="translate(20.683 1.731)"/>
    <path id="Path_217" data-name="Path 217" class="cls-1" d="M4.293,6.483V4.646H6.13V6.483H4.293ZM8.286,1.96H1.1a.519.519,0,0,0-.519.519V19.617a.519.519,0,0,0,.519.519H8.286V1.96ZM4.293,15.613H6.13v1.837H4.293Zm0-5.484H6.13v1.837H4.293Z" transform="translate(-0.58 3.325)"/>
  </g>
</svg>
