<svg xmlns="http://www.w3.org/2000/svg" viewBox="0 0 32.311 36.258">
  <defs>
    <style>
      .cls-1 {
        fill: #999;
        fill-rule: evenodd;
      }
    </style>
  </defs>
  <path id="noun_Credit_Card_941979_000000" data-name="noun_Credit Card_941979_000000" class="cls-1" d="M4.684,0,3.964.254V4.745H3.175A3.181,3.181,0,0,0,0,7.92V33.083a3.178,3.178,0,0,0,3.175,3.175H15.533a3.062,3.062,0,0,0,3.061-3.052V7.806a3.069,3.069,0,0,0-3.061-3.061h-.781V.254L14.033,0l-.465.535L13.033,0h-.605l-.544.535L11.349,0h-.605L10.2.535,9.665,0H9.06L8.516.535,7.981,0H7.376L6.841.535,6.3,0H5.692L5.157.535ZM6,.8l.535.535h.605L7.683.8l.535.535h.605L9.358.8l.544.535h.605L11.042.8l.544.535h.605L12.726.8l.535.535H13.8l.123-.123V4.745h.009v2.6H4.807V1.21l.123.123h.526L6,.8ZM2.579,8.016H16.138v1.8H2.579Zm1.105,4.35H14.9a.489.489,0,0,1,.482.491v5.718a.489.489,0,0,1-.482.491H3.684a.491.491,0,0,1-.491-.491V12.858a.5.5,0,0,1,.491-.491Zm18.138.158a1.41,1.41,0,0,0-1.4,1.4V30.11a1.407,1.407,0,0,0,1.4,1.4h9.086a1.41,1.41,0,0,0,1.4-1.4V13.928a1.407,1.407,0,0,0-1.4-1.4H21.821Zm1.026,2.114h.43a.222.222,0,0,1,.219.219V17.69a.221.221,0,0,1-.219.211h-.43a.215.215,0,0,1-.219-.211V14.857a.219.219,0,0,1,.219-.219Zm0,3.956h.43a.217.217,0,0,1,.219.211v2.842a.217.217,0,0,1-.219.211h-.43a.215.215,0,0,1-.219-.211V18.8A.217.217,0,0,1,22.847,18.594ZM3.535,21.365H6.394a.343.343,0,0,1,.342.342v2.666a.35.35,0,0,1-.342.351H3.535a.35.35,0,0,1-.342-.351V21.708a.343.343,0,0,1,.342-.342Zm4.263,0h2.85a.34.34,0,0,1,.342.342v2.666a.347.347,0,0,1-.342.351H7.8a.357.357,0,0,1-.351-.351V21.708A.35.35,0,0,1,7.8,21.365Zm4.254,0H14.9a.343.343,0,0,1,.342.342v2.666a.35.35,0,0,1-.342.351h-2.85a.347.347,0,0,1-.342-.351V21.708A.34.34,0,0,1,12.051,21.365Zm10.8,1.175h.43a.222.222,0,0,1,.219.219v2.833a.225.225,0,0,1-.219.219h-.43a.222.222,0,0,1-.219-.219V22.76A.225.225,0,0,1,22.847,22.541Zm5.394,2.649h1.851a.215.215,0,0,1,.211.219v4.14a.207.207,0,0,1-.211.211H28.241a.216.216,0,0,1-.219-.219c0-1.379,0-2.752,0-4.131a.222.222,0,0,1,.219-.219Zm-24.707.3H6.394a.343.343,0,0,1,.342.342V28.5a.35.35,0,0,1-.342.351H3.535a.35.35,0,0,1-.342-.351V25.83a.343.343,0,0,1,.342-.342Zm4.263,0h2.85a.34.34,0,0,1,.342.342V28.5a.347.347,0,0,1-.342.351H7.8a.357.357,0,0,1-.351-.351V25.83A.35.35,0,0,1,7.8,25.488Zm4.254,0H14.9a.343.343,0,0,1,.342.342V28.5a.35.35,0,0,1-.342.351h-2.85a.347.347,0,0,1-.342-.351V25.83A.34.34,0,0,1,12.051,25.488Zm10.8,1.009h.43a.218.218,0,0,1,.219.211v2.842a.215.215,0,0,1-.219.211h-.43a.212.212,0,0,1-.219-.211V26.716a.225.225,0,0,1,.219-.219ZM3.535,29.61H6.394a.343.343,0,0,1,.342.342v2.675a.343.343,0,0,1-.342.342H3.535a.343.343,0,0,1-.342-.342V29.952a.343.343,0,0,1,.342-.342Zm4.263,0h2.85a.34.34,0,0,1,.342.342v2.675a.34.34,0,0,1-.342.342H7.8a.35.35,0,0,1-.351-.342V29.952A.35.35,0,0,1,7.8,29.61Zm4.254,0H14.9a.343.343,0,0,1,.342.342v2.675a.343.343,0,0,1-.342.342h-2.85a.34.34,0,0,1-.342-.342V29.952A.34.34,0,0,1,12.051,29.61Z"/>
</svg>
