<svg xmlns="http://www.w3.org/2000/svg" xmlns:xlink="http://www.w3.org/1999/xlink" version="1.1" x="0px" y="0px" viewBox="0 0 48 48" enable-background="new 0 0 48 48" xml:space="preserve"><g><path fill="#000000" d="M45.7,0.5H2.3c-1,0-1.8,0.8-1.8,1.8v9.8c0,1,0.8,1.8,1.8,1.8h43.5c1,0,1.8-0.8,1.8-1.8V2.3   C47.5,1.3,46.7,0.5,45.7,0.5z M11.1,8.7h-5C5.2,8.7,4.6,8,4.6,7.2s0.7-1.5,1.5-1.5h5c0.8,0,1.5,0.7,1.5,1.5S11.9,8.7,11.1,8.7z    M41.5,8.7H18.4c-0.8,0-1.5-0.7-1.5-1.5s0.7-1.5,1.5-1.5h23.1c0.8,0,1.5,0.7,1.5,1.5S42.3,8.7,41.5,8.7z"></path><path fill="#000000" d="M45.7,16.8H2.3c-1,0-1.8,0.8-1.8,1.8v27.1c0,1,0.8,1.8,1.8,1.8h43.5c1,0,1.8-0.8,1.8-1.8V18.6   C47.5,17.6,46.7,16.8,45.7,16.8z M32.2,33.7h-6.4c-0.2,0-0.3,0.1-0.3,0.3v6.4c0,0.8-0.7,1.5-1.5,1.5s-1.5-0.7-1.5-1.5V34   c0-0.2-0.1-0.3-0.3-0.3h-6.4c-0.8,0-1.5-0.7-1.5-1.5s0.7-1.5,1.5-1.5h6.4c0.2,0,0.3-0.1,0.3-0.3v-6.4c0-0.8,0.7-1.5,1.5-1.5   s1.5,0.7,1.5,1.5v6.4c0,0.2,0.1,0.3,0.3,0.3h6.4c0.8,0,1.5,0.7,1.5,1.5S33.1,33.7,32.2,33.7z"></path></g></svg>