<?xml version="1.0" encoding="utf-8"?>
<!-- Generator: Adobe Illustrator 21.0.2, SVG Export Plug-In . SVG Version: 6.00 Build 0)  -->
<svg version="1.1" id="Layer_1" xmlns="http://www.w3.org/2000/svg" xmlns:xlink="http://www.w3.org/1999/xlink" x="0px" y="0px"
	 viewBox="0 0 24 24" style="enable-background:new 0 0 24 24;" xml:space="preserve">
<g>
	<path d="M20,21H4c-1.7,0-3-1.3-3-3V6c0-1.7,1.3-3,3-3h16c1.7,0,3,1.3,3,3v12C23,19.7,21.7,21,20,21z M4,5C3.4,5,3,5.4,3,6v12
		c0,0.6,0.4,1,1,1h16c0.6,0,1-0.4,1-1V6c0-0.6-0.4-1-1-1H4z"/>
</g>
<g>
	<path d="M12,14c-0.2,0-0.4-0.1-0.6-0.2l-10-7C1,6.5,0.9,5.9,1.2,5.4C1.5,5,2.1,4.9,2.6,5.2l9.4,6.6l9.4-6.6
		c0.5-0.3,1.1-0.2,1.4,0.2c0.3,0.5,0.2,1.1-0.2,1.4l-10,7C12.4,13.9,12.2,14,12,14z"/>
</g>
</svg>
