<svg xmlns="http://www.w3.org/2000/svg" xmlns:xlink="http://www.w3.org/1999/xlink" version="1.1" x="0px" y="0px" viewBox="0 0 98 98" style="enable-background:new 0 0 98 98;" xml:space="preserve"><title>32</title><path d="M90.4,57.1l-7-5.2c0.1-1.1,0.1-2.1,0.1-2.9c0-1,0-1.9-0.1-2.9l7.3-5.4l0.3-0.3c1.7-1.5,2.2-4,1.3-6.1l-8.8-15  c-1.3-2.1-3.9-3.1-6.2-2.2l-8.6,4c-1.7-1.2-3.4-2.2-5.3-3.1l-0.9-9.3C62.3,6.1,60.2,4,57.6,4H40.4c-2.7-0.1-4.8,2-4.9,4.7  c0,0,0,0,0,0L34.6,18c-1.9,0.9-3.6,1.9-5.3,3.1l-8.2-3.8l-0.4-0.2c-2.3-0.9-4.9,0.1-6.2,2.2L5.8,34.1v0.2c-0.7,1.4-0.8,3-0.2,4.4  c0.4,1,1.1,1.8,2.1,2.2l7,5.2c-0.1,1.1-0.1,2.1-0.1,2.9c0,1,0,1.9,0.1,2.9l-7.4,5.4L7,57.6c-1.7,1.5-2.2,4-1.3,6.1l8.8,15  c1.3,2.1,3.9,3.1,6.2,2.2l8.6-4c1.7,1.2,3.4,2.2,5.3,3.1l0.9,9.3c0.2,2.6,2.3,4.7,4.9,4.7h17.2c2.7,0.1,4.8-2,4.9-4.7c0,0,0,0,0,0  l0.9-9.3c1.9-0.9,3.6-1.9,5.3-3.1l8.2,3.8l0.4,0.2c2.3,0.9,4.9-0.1,6.2-2.2l8.7-14.8v-0.2c0.7-1.4,0.8-3,0.2-4.4  C92,58.3,91.3,57.6,90.4,57.1z M49,63.5c-8,0-14.5-6.5-14.5-14.5S41,34.5,49,34.5S63.5,41,63.5,49c0.1,8-6.3,14.4-14.3,14.5  C49.1,63.5,49.1,63.5,49,63.5z"></path></svg>