<?xml version="1.0" encoding="utf-8"?>
<!-- Generator: Adobe Illustrator 21.0.2, SVG Export Plug-In . SVG Version: 6.00 Build 0)  -->
<svg version="1.1" id="Layer_1" xmlns="http://www.w3.org/2000/svg" xmlns:xlink="http://www.w3.org/1999/xlink" x="0px" y="0px"
	 viewBox="0 0 39.6 26" style="enable-background:new 0 0 39.6 26;" xml:space="preserve">
<path id="noun_users_791122_000000" transform="translate(-7.458 -22.1)" d="M27.3,22.1c2.9,0,5.3,2.4,5.3,5.3s-2.4,5.3-5.3,5.3
	S22,30.3,22,27.4S24.3,22.1,27.3,22.1z M39.2,24.7c2.2,0,4,1.8,4,4s-1.8,4-4,4s-4-1.8-4-4S37,24.7,39.2,24.7z M47.1,42
	c-0.8-5-3.4-8-7.9-8c-1.5-0.1-3,0.4-4.3,1.3c0.1,0.2,0.3,0.3,0.5,0.4c2.1,2.4,3.4,5.4,3.8,8.6c0,0.1,0,0.3,0,0.4
	C43.6,44.7,47.4,43.9,47.1,42z M15.4,24.7c2.2,0,4,1.8,4,4s-1.8,4-4,4s-4-1.8-4-4S13.2,24.7,15.4,24.7z M19.2,35.7l0.4-0.4
	c-1.3-0.9-2.8-1.3-4.3-1.3c-4.4,0-7,2.9-7.9,8c-0.3,2,3.5,2.7,7.9,2.7c0-0.1,0-0.2,0-0.4C15.8,41.1,17.1,38.1,19.2,35.7z M27.3,48.1
	c-5.8,0-11-1-10.5-3.6c1.1-6.7,4.6-10.6,10.5-10.6s9.4,4,10.5,10.6C38.2,47.1,33.1,48.1,27.3,48.1z"/>
</svg>
